# xmcd CD database file
#
# Track frame offsets:
#	183
#	13983
#	27028
#	39080
#	58533
#	68688
#	82185
#	98940
#	112040
#	129193
#	147360
#	157340
#	167903
#	188545
#
# Disc length: 2699 seconds
#
# Revision: 0
# Processed by: cddbd v1.5PL3 Copyright (c) Steve Scherf et al.
# Submitted via: CDex 1.50beta10
#
DISCID=ba0a890e
DTITLE=Jo Ann Kelly - Retrospect
DYEAR=1990
DGENRE=Blues
TTITLE0=Black Rat Swing
TTITLE1=New Milkcow Blues
TTITLE2=Walking Blues
TTITLE3=Hard Time Killing Floor
TTITLE4=Shave 'Em Dry
TTITLE5=Ain't Seen No Whiskey
TTITLE6=Boyfriend Blues
TTITLE7=I Feel So Good
TTITLE8=Try Me One More Time
TTITLE9=Whe I Lay My Burden Down
TTITLE10=Long Black Hair
TTITLE11=Just Like I Treat You
TTITLE12=Buddy Brown Eyes
TTITLE13=I Look Down The Road and I Wonder
EXTD=YEAR: 1990
EXTT0=
EXTT1=
EXTT2=
EXTT3=
EXTT4=
EXTT5=
EXTT6=
EXTT7=
EXTT8=
EXTT9=
EXTT10=
EXTT11=
EXTT12=
EXTT13=
PLAYORDER=
